<?xml version="1.0" standalone="no"?>
<!DOCTYPE svg PUBLIC "-//W3C//DTD SVG 20010904//EN"
 "http://www.w3.org/TR/2001/REC-SVG-20010904/DTD/svg10.dtd">
<svg version="1.0" xmlns="http://www.w3.org/2000/svg"
 width="900.000000pt" height="1768.000000pt" viewBox="0 0 900.000000 1768.000000"
 preserveAspectRatio="xMidYMid meet">

<g transform="translate(0.000000,1768.000000) scale(0.100000,-0.100000)"
fill="#000000" stroke="none">
<path d="M4479 10704 c-10 -12 -15 -82 -20 -278 -4 -143 -10 -268 -13 -276 -3
-8 -10 -64 -16 -125 -5 -60 -17 -168 -25 -240 -8 -71 -15 -166 -15 -209 0
-107 -17 -325 -41 -522 -38 -314 -57 -744 -68 -1474 -9 -617 -27 -897 -58
-915 -71 -42 -107 -147 -107 -315 -1 -63 1 -142 3 -175 5 -97 -9 -324 -26
-400 -12 -58 -16 -196 -20 -788 -6 -858 -2 -907 73 -966 14 -11 42 -24 62 -27
74 -14 222 89 313 219 58 83 84 160 105 307 21 146 30 559 15 685 -6 55 -16
174 -21 265 -11 190 -23 277 -46 339 -13 34 -15 65 -11 140 8 147 57 254 154
337 120 103 111 224 -21 269 -71 24 -86 47 -59 83 31 42 89 53 293 59 213 6
221 9 239 95 7 29 11 191 11 398 0 201 6 446 15 577 33 509 39 1445 10 1608
-9 50 -20 121 -25 159 -11 78 -64 302 -85 358 -8 20 -30 98 -50 175 -41 162
-61 203 -146 309 -157 196 -250 283 -347 325 -53 23 -56 23 -73 3z m83 -50
c68 -35 153 -114 247 -229 131 -160 152 -202 205 -390 10 -33 24 -82 33 -110
36 -117 69 -255 83 -350 5 -33 13 -82 19 -110 35 -184 36 -198 34 -730 -1
-499 -13 -919 -27 -975 -4 -14 -8 -230 -10 -480 -2 -250 -7 -472 -11 -493 -4
-21 -14 -41 -22 -44 -8 -3 -85 -6 -171 -7 -233 -3 -327 -28 -351 -96 -10 -29
-43 -42 -55 -21 -3 5 -16 11 -28 14 -13 3 -50 12 -83 21 -33 8 -78 15 -101 16
l-41 0 4 58 c2 31 9 98 15 147 7 57 11 223 10 450 -2 414 11 789 27 809 7 9
11 82 10 217 -1 218 21 582 45 740 8 53 20 197 26 320 11 234 22 372 40 524
26 213 33 312 37 518 4 239 2 233 65 201z"/>
</g>
</svg>
